<svg xmlns="http://www.w3.org/2000/svg" viewBox="0 0 36 36">
  <defs>
    <linearGradient id="bg" x1="0" y1="0" x2="36" y2="36" gradientUnits="userSpaceOnUse">
      <stop offset="0%" stop-color="#0c1833"/>
      <stop offset="100%" stop-color="#162966"/>
    </linearGradient>
  </defs>
  <rect width="36" height="36" rx="8" fill="url(#bg)"/>
  <!-- Hexagonal outer ring -->
  <polygon points="18,7 27.5,12.5 27.5,23.5 18,29 8.5,23.5 8.5,12.5"
    fill="none" stroke="#3b82f6" stroke-width="0.9" opacity="0.45"/>
  <!-- Spokes from center to each node -->
  <line x1="18" y1="18" x2="18"   y2="7"    stroke="#60a5fa" stroke-width="0.9" opacity="0.5"/>
  <line x1="18" y1="18" x2="27.5" y2="12.5" stroke="#60a5fa" stroke-width="0.9" opacity="0.5"/>
  <line x1="18" y1="18" x2="27.5" y2="23.5" stroke="#60a5fa" stroke-width="0.9" opacity="0.5"/>
  <line x1="18" y1="18" x2="18"   y2="29"   stroke="#60a5fa" stroke-width="0.9" opacity="0.5"/>
  <line x1="18" y1="18" x2="8.5"  y2="23.5" stroke="#60a5fa" stroke-width="0.9" opacity="0.5"/>
  <line x1="18" y1="18" x2="8.5"  y2="12.5" stroke="#60a5fa" stroke-width="0.9" opacity="0.5"/>
  <!-- Outer nodes -->
  <circle cx="18"   cy="7"    r="2.5" fill="#3b82f6"/>
  <circle cx="27.5" cy="12.5" r="2.5" fill="#3b82f6"/>
  <circle cx="27.5" cy="23.5" r="2.5" fill="#3b82f6"/>
  <circle cx="18"   cy="29"   r="2.5" fill="#3b82f6"/>
  <circle cx="8.5"  cy="23.5" r="2.5" fill="#3b82f6"/>
  <circle cx="8.5"  cy="12.5" r="2.5" fill="#3b82f6"/>
  <!-- Center: glowing core node -->
  <circle cx="18" cy="18" r="5.5" fill="#1d4ed8" opacity="0.28"/>
  <circle cx="18" cy="18" r="3.8" fill="#2563eb"/>
  <circle cx="18" cy="18" r="2.2" fill="#93c5fd"/>
  <circle cx="18" cy="18" r="1"   fill="white"/>
</svg>
